<svg width="50" height="52" viewBox="0 0 50 52" fill="none" xmlns="http://www.w3.org/2000/svg">
<path d="M22.032 2.47142C23.3484 0.84286 25.8313 0.84286 27.1477 2.47142L29.3429 5.18696C30.1608 6.19875 31.4983 6.63337 32.7548 6.29552L36.1268 5.38891C38.1491 4.84516 40.1577 6.30453 40.2656 8.39587L40.4453 11.883C40.5123 13.1824 41.3389 14.3201 42.554 14.7854L45.8149 16.0339C47.7705 16.7827 48.5378 19.144 47.3958 20.8993L45.4915 23.8261C44.7819 24.9167 44.7819 26.323 45.4915 27.4136L47.3958 30.3404C48.5378 32.0957 47.7705 34.4571 45.8149 35.2058L42.554 36.4543C41.3389 36.9196 40.5123 38.0574 40.4453 39.3567L40.2656 42.8439C40.1577 44.9352 38.1491 46.3946 36.1268 45.8508L32.7548 44.9442C31.4983 44.6064 30.1608 45.041 29.3429 46.0528L27.1477 48.7683C25.8313 50.3966 23.3484 50.3966 22.032 48.7683L19.8369 46.0528C19.0189 45.041 17.6814 44.6064 16.425 44.9442L13.0529 45.8508C11.0306 46.3946 9.02199 44.9352 8.91417 42.8439L8.73446 39.3567C8.66743 38.0574 7.84081 36.9196 6.62575 36.4543L3.36481 35.2058C1.40919 34.4571 0.641905 32.0957 1.78394 30.3404L3.68826 27.4136C4.39779 26.323 4.39779 24.9167 3.68826 23.8261L1.78394 20.8993C0.641905 19.144 1.40919 16.7827 3.36481 16.0339L6.62575 14.7854C7.84081 14.3201 8.66743 13.1824 8.73446 11.883L8.91417 8.39587C9.02199 6.30453 11.0306 4.84516 13.0529 5.38891L16.425 6.29552C17.6814 6.63337 19.0189 6.19875 19.8369 5.18696L22.032 2.47142Z" stroke="#393185" stroke-width="2.5"/>
<path d="M24.5903 39.4336C32.2197 39.4336 38.4045 33.2487 38.4045 25.6194C38.4045 17.99 32.2197 11.8052 24.5903 11.8052C16.9609 11.8052 10.7761 17.99 10.7761 25.6194C10.7761 33.2487 16.9609 39.4336 24.5903 39.4336Z" stroke="#393185" stroke-width="2.5"/>
<path d="M19.3274 26.092L21.9654 28.9289C22.6159 29.6284 23.7235 29.6284 24.374 28.9289L30.5103 22.3301" stroke="#393185" stroke-width="2.5" stroke-linecap="round" stroke-linejoin="round"/>
</svg>
