<svg width="53" height="51" viewBox="0 0 53 51" fill="none" xmlns="http://www.w3.org/2000/svg">
<path fill-rule="evenodd" clip-rule="evenodd" d="M34.3774 32.1737C34.3576 32.3327 34.3258 32.492 34.2814 32.6509L34.2804 32.6505C34.2722 32.6798 34.256 32.7303 34.2324 32.8016C34.0478 33.3584 33.7277 33.842 33.3155 34.2333C34.5762 34.3903 36.0226 34.2301 37.9328 33.3649L45.244 29.5757C45.2137 29.4479 45.158 29.3213 45.0756 29.2009C44.8836 28.9204 44.5848 28.7479 44.2429 28.6743C43.8094 28.5808 43.3071 28.637 42.8313 28.8256L42.8298 28.8221L34.3775 32.1736L34.3774 32.1737ZM11.0736 31.0539L18.1454 27.5974C18.4616 27.4429 18.7825 27.3514 19.1061 27.3214C19.4333 27.291 19.7785 27.324 20.139 27.4191L31.0267 30.2881C31.0975 30.3067 31.1088 30.3085 31.1186 30.3115C31.563 30.4505 31.9097 30.7248 32.1139 31.0623C32.3046 31.3774 32.3694 31.7526 32.2665 32.1203V32.1243L32.2501 32.1839C32.1173 32.5844 31.8006 32.9043 31.3973 33.0997C30.9778 33.303 30.4746 33.3699 29.9833 33.2575C29.9533 33.2483 29.923 33.2405 29.8927 33.2341L24.3451 31.8201C23.7887 31.678 23.219 32.0007 23.0726 32.5408C22.9262 33.081 23.2586 33.634 23.8149 33.7762L29.3491 35.1867C29.6161 35.2822 29.7142 35.318 29.8132 35.3542C32.2762 36.2536 34.6115 37.1064 38.8365 35.1839L38.8854 35.1601L46.7067 31.1066C46.7516 31.0871 46.795 31.0645 46.8367 31.0392L48.6256 30.112C48.9981 29.9191 49.4295 29.8803 49.8246 29.9735C50.2032 30.0628 50.5393 30.2729 50.7409 30.582L50.7641 30.6172C50.9257 30.8842 50.953 31.1826 50.8694 31.4579C50.777 31.7625 50.5534 32.0458 50.2253 32.2474L50.173 32.2795L34.0472 41.4799C33.7068 41.674 33.3451 41.7934 32.9715 41.8366C32.5963 41.88 32.2081 41.846 31.8165 41.7338L27.1827 40.4049C27.063 40.3706 27.0018 40.3518 26.7228 40.2705C24.4825 39.6183 23.0915 39.2134 20.8278 40.4654L17.9303 42.068L11.0736 31.0536V31.0539ZM10.799 50.5102L0.149877 33.4041C-0.147492 32.9252 0.0114064 32.3029 0.504666 32.0142L7.79215 27.7381C8.28541 27.4494 8.92642 27.6036 9.22379 28.0825L9.99288 29.3178L17.2074 25.7916C17.7552 25.5238 18.3242 25.364 18.9103 25.3096C19.5004 25.255 20.0934 25.3067 20.6856 25.4628L31.5733 28.3318C31.5948 28.3374 31.6551 28.3558 31.755 28.387C32.7024 28.6831 33.453 29.288 33.9086 30.0405C33.9313 30.0779 33.9532 30.1157 33.9744 30.1537L42.048 26.9523V26.9484C42.9004 26.6105 43.8404 26.5186 44.6915 26.702C45.5427 26.8856 46.3014 27.337 46.813 28.084C46.9294 28.2538 47.0265 28.4302 47.105 28.6109L47.6467 28.3302C48.4865 27.895 49.4455 27.8045 50.314 28.0095C51.1988 28.2182 51.9996 28.7336 52.5028 29.505C52.5124 29.5198 52.5307 29.5495 52.5587 29.5956C53.0284 30.3717 53.1088 31.2346 52.868 32.0282C52.6361 32.7924 52.1032 33.4859 51.3347 33.9582C51.3149 33.9705 51.2789 33.9915 51.2253 34.022L35.0996 43.2224C34.5014 43.5636 33.8681 43.7729 33.2163 43.8483C32.5661 43.9235 31.8983 43.8661 31.2292 43.6742L26.1274 42.2109C24.4101 41.711 23.3438 41.4006 21.8557 42.2237L19.0078 43.7989L19.873 45.1885C20.1704 45.6673 20.0115 46.2897 19.5182 46.5784L12.2307 50.8545C11.7375 51.1432 11.0965 50.9889 10.7991 50.51L10.799 50.5102ZM2.47517 33.2242L12.0453 48.5972L17.5476 45.3686L7.97755 29.9956L2.47517 33.2242ZM36.0559 2.02747H33.5012L32.9235 3.77685L32.9226 3.77653C32.8183 4.09065 32.558 4.3489 32.2056 4.44207C31.813 4.54605 31.4253 4.67545 31.0447 4.82865C30.6798 4.97552 30.3143 5.15069 29.9504 5.35267L29.9497 5.35138C29.6536 5.51541 29.2807 5.53535 28.9552 5.3725L27.2729 4.53233L25.4675 6.28504L26.3059 7.86739C26.4894 8.17036 26.5051 8.55769 26.3125 8.88456C26.1045 9.23791 25.9238 9.59297 25.7726 9.9474C25.6206 10.3033 25.4914 10.6656 25.3864 11.0323C25.3075 11.369 25.0526 11.6578 24.6893 11.771L22.8874 12.3319V14.8122L24.6893 15.3731L24.689 15.3739C25.0125 15.4751 25.2785 15.7279 25.3745 16.07C25.4816 16.4511 25.6149 16.8275 25.7726 17.1971C25.9237 17.5514 26.1044 17.9062 26.3124 18.2596L26.3111 18.2603C26.48 18.5478 26.5006 18.9098 26.3329 19.2258L25.4674 20.8591L27.2728 22.6119L28.9026 21.7979C29.2147 21.6197 29.6135 21.6045 29.9503 21.7915C30.3143 21.9934 30.68 22.1688 31.0452 22.3157C31.4118 22.4631 31.7849 22.5887 32.1626 22.6906C32.5095 22.7673 32.8068 23.0147 32.9235 23.3674L33.5012 25.1168H36.0559L36.6337 23.3674L36.6346 23.3677C36.7388 23.0536 36.9992 22.7953 37.3515 22.7022C37.7441 22.5982 38.1317 22.4688 38.5124 22.3157C38.8774 22.1688 39.243 21.9936 39.6068 21.7916L39.6076 21.7929C39.9036 21.6288 40.2765 21.6089 40.6021 21.7717L42.2844 22.6119L44.0897 20.8592L43.2512 19.2769C43.0677 18.9739 43.052 18.5867 43.2446 18.2597C43.4526 17.9063 43.6333 17.5513 43.7846 17.1969C43.9365 16.8408 44.0657 16.4786 44.1707 16.1119C44.2498 15.7752 44.5045 15.4865 44.8678 15.3733L46.6697 14.8124V12.3321L44.8678 11.7712L44.8681 11.7703C44.5446 11.6691 44.2786 11.4163 44.1826 11.0742C44.0755 10.6931 43.9421 10.3167 43.7845 9.94718C43.6333 9.59287 43.4526 9.23791 43.2446 8.88467L43.2459 8.88392C43.077 8.5965 43.0564 8.23446 43.2242 7.91842L44.0896 6.28514L42.2842 4.53244L40.6544 5.34645C40.3423 5.52463 39.9435 5.53985 39.6067 5.35288C39.2584 5.15959 38.9086 4.99074 38.5592 4.84784C38.542 4.84183 38.5248 4.83551 38.5078 4.82865C38.1363 4.6792 37.7645 4.55367 37.3943 4.45375C37.0475 4.37699 36.7502 4.12956 36.6336 3.77707L36.0558 2.02769L36.0559 2.02747ZM32.7429 0V0.00300174C32.3027 0.00289454 31.8935 0.276054 31.7518 0.704877L31.1082 2.65366C30.8163 2.74575 30.5313 2.84792 30.2535 2.95973C29.9657 3.07551 29.6877 3.19923 29.4204 3.33056L27.6131 2.42789C27.2114 2.19085 26.6805 2.24081 26.3332 2.57787L23.4542 5.37282L23.4558 5.37432C23.1439 5.67697 23.0537 6.15189 23.2666 6.55284L24.2295 8.36997C24.0942 8.62973 23.9667 8.89967 23.8474 9.17927C23.7325 9.44878 23.6273 9.72537 23.5324 10.0087L21.6064 10.6082C21.1438 10.7124 20.7992 11.115 20.7992 11.5957V15.5485H20.8023C20.8023 15.9759 21.0836 16.3731 21.5253 16.5107L23.5325 17.1355C23.6274 17.419 23.7326 17.6957 23.8477 17.9653C23.9669 18.2448 24.0945 18.5146 24.2296 18.7743L23.2999 20.5289C23.0557 20.9189 23.1072 21.4344 23.4543 21.7715L26.3333 24.5666L26.3348 24.5651C26.6466 24.8678 27.1357 24.9554 27.5487 24.7487L29.4205 23.8139C29.6881 23.9452 29.9661 24.0691 30.2541 24.1849C30.5316 24.2965 30.8166 24.3987 31.1083 24.4908L31.7258 26.3607C31.8331 26.8098 32.2478 27.1444 32.7429 27.1444H36.8143V27.1414C37.2546 27.1415 37.6637 26.8683 37.8055 26.4395L38.449 24.4907C38.741 24.3986 39.026 24.2964 39.3037 24.1847C39.5916 24.0689 39.8695 23.9451 40.137 23.8139L41.9443 24.7166C42.346 24.9536 42.8769 24.9037 43.2242 24.5666L46.103 21.7716L46.1015 21.7701C46.4133 21.4675 46.5035 20.9926 46.2906 20.5916L45.3277 18.7744C45.463 18.5146 45.5905 18.2448 45.7098 17.9651C45.8249 17.6956 45.93 17.419 46.0248 17.1356L47.9508 16.5361C48.4134 16.4319 48.758 16.0294 48.758 15.5487V11.5959H48.7549C48.7549 11.1685 48.4737 10.7714 48.032 10.6336L46.0247 10.0088C45.9298 9.72537 45.8246 9.44867 45.7096 9.17905C45.5903 8.89957 45.4628 8.62973 45.3276 8.37008L46.2574 6.61544C46.5015 6.22543 46.4501 5.70999 46.1029 5.37282L43.2241 2.57787L43.2225 2.57937C42.9108 2.27662 42.4216 2.18903 42.0086 2.39572L40.1368 3.33056C39.8872 3.20802 39.6285 3.09202 39.3609 2.98289C39.3433 2.97463 39.3256 2.96681 39.3073 2.95952C39.0311 2.84835 38.7446 2.74607 38.4488 2.65312L37.8315 0.78378C37.7242 0.334696 37.3096 0.000107147 36.8144 0.000107147H32.743L32.7429 0ZM37.788 10.6503C38.5581 11.398 39.0345 12.431 39.0345 13.5721C39.0345 14.7132 38.5581 15.7463 37.788 16.4939C37.0179 17.2416 35.9539 17.704 34.7786 17.704C33.6032 17.704 32.5392 17.2416 31.7691 16.4939C30.999 15.7463 30.5226 14.7132 30.5226 13.5721C30.5226 12.431 30.999 11.398 31.7691 10.6503C32.5392 9.90269 33.6032 9.44021 34.7786 9.44021C35.9539 9.44021 37.0179 9.90269 37.788 10.6503ZM34.7786 7.41273C36.5303 7.41273 38.1163 8.10217 39.2645 9.2169C40.4126 10.3316 41.1228 11.8714 41.1228 13.5721C41.1228 15.2728 40.4127 16.8127 39.2645 17.9274C38.1163 19.0421 36.5303 19.7315 34.7786 19.7315C33.0268 19.7315 31.4408 19.0421 30.2926 17.9274C29.1446 16.8127 28.4343 15.2728 28.4343 13.5721C28.4343 11.8714 29.1444 10.3316 30.2926 9.2169C31.4408 8.10228 33.0268 7.41273 34.7786 7.41273Z" fill="#393185"/>
</svg>
